<svg id="visual" viewBox="0 0 900 600" width="900" height="600" xmlns="http://www.w3.org/2000/svg" xmlns:xlink="http://www.w3.org/1999/xlink" version="1.1"><path d="M0 217L16.7 213C33.3 209 66.7 201 100 196C133.3 191 166.7 189 200 194C233.3 199 266.7 211 300 201C333.3 191 366.7 159 400 145C433.3 131 466.7 135 500 135C533.3 135 566.7 131 600 132C633.3 133 666.7 139 700 135C733.3 131 766.7 117 800 132C833.3 147 866.7 191 883.3 213L900 235L900 0L883.3 0C866.7 0 833.3 0 800 0C766.7 0 733.3 0 700 0C666.7 0 633.3 0 600 0C566.7 0 533.3 0 500 0C466.7 0 433.3 0 400 0C366.7 0 333.3 0 300 0C266.7 0 233.3 0 200 0C166.7 0 133.3 0 100 0C66.7 0 33.3 0 16.7 0L0 0Z" fill="#a191f9"></path><path d="M0 355L16.7 350C33.3 345 66.7 335 100 328C133.3 321 166.7 317 200 316C233.3 315 266.7 317 300 309C333.3 301 366.7 283 400 267C433.3 251 466.7 237 500 238C533.3 239 566.7 255 600 256C633.3 257 666.7 243 700 237C733.3 231 766.7 233 800 248C833.3 263 866.7 291 883.3 305L900 319L900 233L883.3 211C866.7 189 833.3 145 800 130C766.7 115 733.3 129 700 133C666.7 137 633.3 131 600 130C566.7 129 533.3 133 500 133C466.7 133 433.3 129 400 143C366.7 157 333.3 189 300 199C266.7 209 233.3 197 200 192C166.7 187 133.3 189 100 194C66.7 199 33.3 207 16.7 211L0 215Z" fill="#8c78f6"></path><path d="M0 409L16.7 407C33.3 405 66.7 401 100 394C133.3 387 166.7 377 200 373C233.3 369 266.7 371 300 369C333.3 367 366.7 361 400 349C433.3 337 466.7 319 500 312C533.3 305 566.7 309 600 311C633.3 313 666.7 313 700 313C733.3 313 766.7 313 800 322C833.3 331 866.7 349 883.3 358L900 367L900 317L883.3 303C866.7 289 833.3 261 800 246C766.7 231 733.3 229 700 235C666.7 241 633.3 255 600 254C566.7 253 533.3 237 500 236C466.7 235 433.3 249 400 265C366.7 281 333.3 299 300 307C266.7 315 233.3 313 200 314C166.7 315 133.3 319 100 326C66.7 333 33.3 343 16.7 348L0 353Z" fill="#775ef1"></path><path d="M0 547L16.7 538C33.3 529 66.7 511 100 510C133.3 509 166.7 525 200 525C233.3 525 266.7 509 300 503C333.3 497 366.7 501 400 501C433.3 501 466.7 497 500 494C533.3 491 566.7 489 600 497C633.3 505 666.7 523 700 529C733.3 535 766.7 529 800 519C833.3 509 866.7 495 883.3 488L900 481L900 365L883.3 356C866.7 347 833.3 329 800 320C766.7 311 733.3 311 700 311C666.7 311 633.3 311 600 309C566.7 307 533.3 303 500 310C466.7 317 433.3 335 400 347C366.7 359 333.3 365 300 367C266.7 369 233.3 367 200 371C166.7 375 133.3 385 100 392C66.7 399 33.3 403 16.7 405L0 407Z" fill="#664ed4"></path><path d="M0 601L16.7 601C33.3 601 66.7 601 100 601C133.3 601 166.7 601 200 601C233.3 601 266.7 601 300 601C333.3 601 366.7 601 400 601C433.3 601 466.7 601 500 601C533.3 601 566.7 601 600 601C633.3 601 666.7 601 700 601C733.3 601 766.7 601 800 601C833.3 601 866.7 601 883.3 601L900 601L900 479L883.3 486C866.7 493 833.3 507 800 517C766.7 527 733.3 533 700 527C666.7 521 633.3 503 600 495C566.7 487 533.3 489 500 492C466.7 495 433.3 499 400 499C366.7 499 333.3 495 300 501C266.7 507 233.3 523 200 523C166.7 523 133.3 507 100 508C66.7 509 33.3 527 16.7 536L0 545Z" fill="#553fb7"></path></svg>